<svg xmlns="http://www.w3.org/2000/svg" xmlns:v="https://vecta.io/nano" width="128" height="128" viewBox="0 0 128 128" fill="none"><path d="M64 128c35.346 0 64-28.654 64-64S99.346 0 64 0 0 28.654 0 64s28.654 64 64 64z" fill="#8247e5"/><g clip-path="url(#A)"><path d="M88.234 47.663c-1.695-.967-3.875-.967-5.812 0l-13.562 7.979-9.203 5.078-13.32 7.979c-1.695.967-3.875.967-5.812 0l-10.414-6.287c-1.695-.967-2.906-2.902-2.906-5.078v-12.09c0-1.934.969-3.869 2.906-5.078l10.414-6.045c1.695-.967 3.875-.967 5.813 0l10.414 6.287c1.695.967 2.906 2.901 2.906 5.078v7.979l9.203-5.319v-8.221c0-1.934-.969-3.869-2.906-5.078L46.578 23.484c-1.695-.967-3.875-.967-5.812 0L20.906 35.09C18.969 36.057 18 37.991 18 39.925v22.728c0 1.934.969 3.869 2.906 5.078l19.617 11.364c1.695.967 3.875.967 5.813 0l13.32-7.737 9.203-5.319 13.32-7.737c1.695-.967 3.875-.967 5.813 0l10.414 6.045c1.696.967 2.906 2.901 2.906 5.078v12.09c0 1.934-.968 3.869-2.906 5.078l-10.172 6.045c-1.695.967-3.875.967-5.812 0l-10.414-6.045c-1.695-.967-2.906-2.901-2.906-5.078v-7.737l-9.203 5.319v7.979c0 1.934.969 3.869 2.906 5.078l19.617 11.364c1.695.968 3.875.968 5.813 0l19.618-11.364c1.695-.967 2.906-2.901 2.906-5.078v-22.97c0-1.934-.969-3.869-2.906-5.078L88.234 47.663z" fill="#fff"/></g><defs><clipPath id="A"><path fill="#fff" transform="translate(18 23)" d="M0 0h93v81H0z"/></clipPath></defs></svg>
