<?xml version="1.0" encoding="utf-8"?>
<!-- Generator: Adobe Illustrator 26.0.0, SVG Export Plug-In . SVG Version: 6.00 Build 0)  -->
<svg version="1.1" id="Layer_1" xmlns="http://www.w3.org/2000/svg" xmlns:xlink="http://www.w3.org/1999/xlink" x="0px" y="0px"
	 viewBox="0 0 500 500" style="enable-background:new 0 0 500 500;" xml:space="preserve">
<style type="text/css">
	.st0{fill:#FFFFFF;}
</style>
<path d="M458.5,490.9h-417c-17.9,0-32.4-14.5-32.4-32.4v-417c0-17.9,14.5-32.4,32.4-32.4h417c17.9,0,32.4,14.5,32.4,32.4v417
	C490.9,476.4,476.4,490.9,458.5,490.9z"/>
<path id="path1009" class="st0" d="M40.6,53.1l162.5,217.3L39.6,446.9h36.8l143.1-154.6l115.6,154.6h125.2L288.8,217.5L441,53.1
	h-36.8L272.4,195.5L165.8,53.1H40.6z M94.7,80.2h57.5l254,339.6h-57.5L94.7,80.2z"/>
</svg>
